<svg width="97" height="15" viewBox="0 0 97 15" fill="none" xmlns="http://www.w3.org/2000/svg">
<path d="M11.1418 8.78741C10.9605 8.97401 10.8772 9.24388 10.9185 9.50854L11.5407 13.1662C11.5932 13.4763 11.47 13.79 11.2257 13.9692C10.9864 14.155 10.6679 14.1773 10.4069 14.0286L7.30696 12.3113C7.19917 12.2503 7.07949 12.2176 6.957 12.2139H6.76733C6.70154 12.2243 6.63715 12.2466 6.57835 12.2808L3.47776 14.0063C3.32448 14.0881 3.1509 14.1171 2.98082 14.0881C2.56648 14.0048 2.29001 13.5855 2.3579 13.1432L2.98082 9.48549C3.02212 9.2186 2.93883 8.94725 2.75755 8.75767L0.230183 6.15565C0.0188106 5.93782 -0.0546798 5.61071 0.0419076 5.31556C0.135695 5.02116 0.375064 4.80631 0.664126 4.75799L4.14267 4.22197C4.40724 4.19298 4.63961 4.02199 4.75859 3.76922L6.29139 0.431193C6.32779 0.356849 6.37468 0.288453 6.43137 0.230465L6.49436 0.178425C6.52726 0.139766 6.56505 0.107798 6.60705 0.0817779L6.68334 0.0520405L6.80232 0H7.09699C7.36015 0.028994 7.59182 0.196267 7.7129 0.446061L9.266 3.76922C9.37799 4.01232 9.59566 4.18108 9.84693 4.22197L13.3255 4.75799C13.6194 4.80259 13.8651 5.01819 13.9624 5.31556C14.0541 5.61368 13.975 5.94079 13.7594 6.15565L11.1418 8.78741Z" fill="#C4C4C4"/>
<path d="M32.1418 8.78741C31.9605 8.97401 31.8772 9.24388 31.9185 9.50854L32.5407 13.1662C32.5932 13.4763 32.47 13.79 32.2257 13.9692C31.9864 14.155 31.6679 14.1773 31.4069 14.0286L28.307 12.3113C28.1992 12.2503 28.0795 12.2176 27.957 12.2139H27.7673C27.7015 12.2243 27.6371 12.2466 27.5784 12.2808L24.4778 14.0063C24.3245 14.0881 24.1509 14.1171 23.9808 14.0881C23.5665 14.0048 23.29 13.5855 23.3579 13.1432L23.9808 9.48549C24.0221 9.2186 23.9388 8.94725 23.7576 8.75767L21.2302 6.15565C21.0188 5.93782 20.9453 5.61071 21.0419 5.31556C21.1357 5.02116 21.3751 4.80631 21.6641 4.75799L25.1427 4.22197C25.4072 4.19298 25.6396 4.02199 25.7586 3.76922L27.2914 0.431193C27.3278 0.356849 27.3747 0.288453 27.4314 0.230465L27.4944 0.178425C27.5273 0.139766 27.5651 0.107798 27.607 0.0817779L27.6833 0.0520405L27.8023 0H28.097C28.3602 0.028994 28.5918 0.196267 28.7129 0.446061L30.266 3.76922C30.378 4.01232 30.5957 4.18108 30.8469 4.22197L34.3255 4.75799C34.6194 4.80259 34.8651 5.01819 34.9624 5.31556C35.0541 5.61368 34.975 5.94079 34.7594 6.15565L32.1418 8.78741Z" fill="#C4C4C4"/>
<path d="M52.9376 8.78741C52.7434 8.97401 52.6541 9.24388 52.6984 9.50854L53.365 13.1662C53.4213 13.4763 53.2893 13.79 53.0276 13.9692C52.7711 14.155 52.4299 14.1773 52.1502 14.0286L48.8289 12.3113C48.7134 12.2503 48.5852 12.2176 48.4539 12.2139H48.2507C48.1802 12.2243 48.1112 12.2466 48.0482 12.2808L44.7262 14.0063C44.5619 14.0881 44.376 14.1171 44.1937 14.0881C43.7498 14.0048 43.4536 13.5855 43.5263 13.1432L44.1937 9.48549C44.238 9.2186 44.1487 8.94725 43.9545 8.75767L41.2466 6.15565C41.0202 5.93782 40.9414 5.61071 41.0449 5.31556C41.1454 5.02116 41.4019 4.80631 41.7116 4.75799L45.4386 4.22197C45.722 4.19298 45.971 4.02199 46.0985 3.76922L47.7408 0.431193C47.7798 0.356849 47.83 0.288453 47.8908 0.230465L47.9582 0.178425C47.9935 0.139766 48.034 0.107798 48.079 0.0817779L48.1607 0.0520405L48.2882 0H48.6039C48.8859 0.028994 49.1341 0.196267 49.2638 0.446061L50.9279 3.76922C51.0478 4.01232 51.2811 4.18108 51.5503 4.22197L55.2773 4.75799C55.5922 4.80259 55.8555 5.01819 55.9597 5.31556C56.0579 5.61368 55.9732 5.94079 55.7422 6.15565L52.9376 8.78741Z" fill="#C4C4C4"/>
<path d="M73.1418 8.78741C72.9605 8.97401 72.8772 9.24388 72.9185 9.50854L73.5407 13.1662C73.5932 13.4763 73.47 13.79 73.2257 13.9692C72.9864 14.155 72.6679 14.1773 72.4069 14.0286L69.307 12.3113C69.1992 12.2503 69.0795 12.2176 68.957 12.2139H68.7673C68.7015 12.2243 68.6371 12.2466 68.5784 12.2808L65.4778 14.0063C65.3245 14.0881 65.1509 14.1171 64.9808 14.0881C64.5665 14.0048 64.29 13.5855 64.3579 13.1432L64.9808 9.48549C65.0221 9.2186 64.9388 8.94725 64.7576 8.75767L62.2302 6.15565C62.0188 5.93782 61.9453 5.61071 62.0419 5.31556C62.1357 5.02116 62.3751 4.80631 62.6641 4.75799L66.1427 4.22197C66.4072 4.19298 66.6396 4.02199 66.7586 3.76922L68.2914 0.431193C68.3278 0.356849 68.3747 0.288453 68.4314 0.230465L68.4944 0.178425C68.5273 0.139766 68.5651 0.107798 68.607 0.0817779L68.6833 0.0520405L68.8023 0H69.097C69.3602 0.028994 69.5918 0.196267 69.7129 0.446061L71.266 3.76922C71.378 4.01232 71.5957 4.18108 71.8469 4.22197L75.3255 4.75799C75.6194 4.80259 75.8651 5.01819 75.9624 5.31556C76.0541 5.61368 75.975 5.94079 75.7594 6.15565L73.1418 8.78741Z" fill="#C4C4C4"/>
<path d="M93.4357 8.78741C93.2544 8.97401 93.1711 9.24388 93.2124 9.50854L93.8347 13.1662C93.8871 13.4763 93.764 13.79 93.5197 13.9692C93.2803 14.155 92.9619 14.1773 92.7008 14.0286L89.6009 12.3113C89.4931 12.2503 89.3734 12.2176 89.2509 12.2139H89.0613C88.9955 12.2243 88.9311 12.2466 88.8723 12.2808L85.7717 14.0063C85.6184 14.0881 85.4448 14.1171 85.2748 14.0881C84.8604 14.0048 84.584 13.5855 84.6519 13.1432L85.2748 9.48549C85.3161 9.2186 85.2328 8.94725 85.0515 8.75767L82.5241 6.15565C82.3128 5.93782 82.2393 5.61071 82.3359 5.31556C82.4296 5.02116 82.669 4.80631 82.9581 4.75799L86.4366 4.22197C86.7012 4.19298 86.9336 4.02199 87.0525 3.76922L88.5853 0.431193C88.6217 0.356849 88.6686 0.288453 88.7253 0.230465L88.7883 0.178425C88.8212 0.139766 88.859 0.107798 88.901 0.0817779L88.9773 0.0520405L89.0963 0H89.3909C89.6541 0.028994 89.8858 0.196267 90.0069 0.446061L91.5599 3.76922C91.6719 4.01232 91.8896 4.18108 92.1409 4.22197L95.6194 4.75799C95.9134 4.80259 96.159 5.01819 96.2563 5.31556C96.348 5.61368 96.2689 5.94079 96.0534 6.15565L93.4357 8.78741Z" fill="#C4C4C4"/>
</svg>
