<svg width="14" height="15" viewBox="0 0 14 15" fill="none" xmlns="http://www.w3.org/2000/svg">
<path d="M11.1418 8.78741C10.9605 8.97401 10.8772 9.24388 10.9185 9.50854L11.5407 13.1662C11.5932 13.4763 11.47 13.79 11.2257 13.9692C10.9864 14.155 10.6679 14.1773 10.4069 14.0286L7.30696 12.3113C7.19917 12.2503 7.07949 12.2176 6.957 12.2139H6.76733C6.70154 12.2243 6.63715 12.2466 6.57835 12.2808L3.47776 14.0063C3.32448 14.0881 3.1509 14.1171 2.98082 14.0881C2.56648 14.0048 2.29001 13.5855 2.3579 13.1432L2.98082 9.48549C3.02212 9.2186 2.93883 8.94725 2.75755 8.75767L0.230183 6.15565C0.0188106 5.93782 -0.0546798 5.61071 0.0419076 5.31556C0.135695 5.02116 0.375064 4.80631 0.664126 4.75799L4.14267 4.22197C4.40724 4.19298 4.63961 4.02199 4.75859 3.76922L6.29139 0.431193C6.32779 0.356849 6.37468 0.288453 6.43137 0.230465L6.49436 0.178425C6.52726 0.139766 6.56505 0.107798 6.60705 0.0817779L6.68334 0.0520405L6.80232 0H7.09699C7.36015 0.028994 7.59182 0.196267 7.7129 0.446061L9.266 3.76922C9.37799 4.01232 9.59566 4.18108 9.84693 4.22197L13.3255 4.75799C13.6194 4.80259 13.8651 5.01819 13.9624 5.31556C14.0541 5.61368 13.975 5.94079 13.7594 6.15565L11.1418 8.78741Z" fill="#C4C4C4"/>
</svg>
