<svg width="18" height="62" viewBox="0 0 18 62" fill="none" xmlns="http://www.w3.org/2000/svg">
<line x1="9" y1="12" x2="9" y2="45" stroke="url(#paint0_linear)" stroke-width="2" stroke-dasharray="3 3"/>
<path fill-rule="evenodd" clip-rule="evenodd" d="M2 6.65421C2 2.97431 5.0751 0 8.79476 0C12.5249 0 15.6 2.97431 15.6 6.65421C15.6 8.50855 14.9256 10.2301 13.8156 11.6893C12.591 13.2988 11.0817 14.7012 9.38283 15.8019C8.99401 16.0563 8.6431 16.0755 8.21636 15.8019C6.50779 14.7012 4.99847 13.2988 3.7844 11.6893C2.67359 10.2301 2 8.50855 2 6.65421ZM6.55552 6.86142C6.55552 8.09418 7.56146 9.06376 8.79489 9.06376C10.0291 9.06376 11.0448 8.09418 11.0448 6.86142C11.0448 5.63825 10.0291 4.62148 8.79489 4.62148C7.56146 4.62148 6.55552 5.63825 6.55552 6.86142Z" fill="white"/>
<circle cx="9" cy="52.9998" r="7" stroke="white" stroke-width="2"/>
<circle cx="9" cy="52.9998" r="2" fill="black" stroke="white" stroke-width="2"/>
<path d="M4.0502 48.05L1 45M13.9497 48.05L17 45M17 61L13.9497 57.9494M1 61L4.0502 57.9494" stroke="white" stroke-width="2" stroke-linecap="round"/>
<defs>
<linearGradient id="paint0_linear" x1="9.50002" y1="43.625" x2="9.50001" y2="12" gradientUnits="userSpaceOnUse">
<stop offset="0.458333" stop-color="#FFC542"/>
<stop offset="1" stop-opacity="0.4"/>
</linearGradient>
</defs>
</svg>
